<svg width="360" height="360" xmlns="http://www.w3.org/2000/svg" xmlns:xlink="http://www.w3.org/1999/xlink" xml:space="preserve" overflow="hidden"><g transform="translate(-554 -13)"><path d="M733.948 50.5C655.291 50.5 591.526 114.264 591.526 192.921 591.526 271.578 655.291 335.342 733.948 335.342 812.604 335.342 876.369 271.578 876.369 192.921 876.369 192.916 876.369 192.911 876.369 192.906 876.396 114.285 812.682 50.527 734.06 50.5 734.023 50.5 733.985 50.5 733.948 50.5ZM803.769 205.6 746.626 205.6 746.626 262.728 721.269 262.728 721.269 205.585 664.126 205.585 664.126 180.228 721.269 180.228 721.269 123.085 746.626 123.085 746.626 180.228 803.769 180.228Z" fill="#FFFFFF"/></g></svg>